<mxfile host="app.diagrams.net" modified="2024-04-05T13:36:07.377Z" agent="Mozilla/5.0 (Windows NT 10.0; Win64; x64) AppleWebKit/537.36 (KHTML, like Gecko) Chrome/123.0.0.0 Safari/537.36" etag="OldeD53Yyy-Sk7oT3Pyr" version="24.2.2" type="github">
  <diagram id="C5RBs43oDa-KdzZeNtuy" name="Page-1">
    <mxGraphModel dx="1039" dy="568" grid="1" gridSize="10" guides="1" tooltips="1" connect="1" arrows="1" fold="1" page="1" pageScale="1" pageWidth="827" pageHeight="1169" math="0" shadow="0">
      <root>
        <mxCell id="WIyWlLk6GJQsqaUBKTNV-0" />
        <mxCell id="WIyWlLk6GJQsqaUBKTNV-1" parent="WIyWlLk6GJQsqaUBKTNV-0" />
        <mxCell id="VcVRGUTHm5neMzCTnZ2S-0" value="Start Program Running" style="ellipse;whiteSpace=wrap;html=1;" vertex="1" parent="WIyWlLk6GJQsqaUBKTNV-1">
          <mxGeometry x="450" y="40" width="100" height="70" as="geometry" />
        </mxCell>
        <mxCell id="VcVRGUTHm5neMzCTnZ2S-1" value="" style="endArrow=classic;html=1;rounded=0;exitX=0.5;exitY=1;exitDx=0;exitDy=0;" edge="1" parent="WIyWlLk6GJQsqaUBKTNV-1" source="VcVRGUTHm5neMzCTnZ2S-0" target="VcVRGUTHm5neMzCTnZ2S-3">
          <mxGeometry width="50" height="50" relative="1" as="geometry">
            <mxPoint x="500" y="370" as="sourcePoint" />
            <mxPoint x="500" y="140" as="targetPoint" />
          </mxGeometry>
        </mxCell>
        <mxCell id="VcVRGUTHm5neMzCTnZ2S-2" value="Quit&lt;div&gt;Program&lt;/div&gt;" style="ellipse;whiteSpace=wrap;html=1;" vertex="1" parent="WIyWlLk6GJQsqaUBKTNV-1">
          <mxGeometry x="10" y="840" width="110" height="70" as="geometry" />
        </mxCell>
        <mxCell id="VcVRGUTHm5neMzCTnZ2S-3" value="Display&amp;nbsp;&lt;div&gt;menu options&lt;/div&gt;" style="shape=parallelogram;perimeter=parallelogramPerimeter;whiteSpace=wrap;html=1;fixedSize=1;" vertex="1" parent="WIyWlLk6GJQsqaUBKTNV-1">
          <mxGeometry x="440" y="140" width="120" height="60" as="geometry" />
        </mxCell>
        <mxCell id="VcVRGUTHm5neMzCTnZ2S-6" value="Get user&#39;s menu selection" style="shape=parallelogram;perimeter=parallelogramPerimeter;whiteSpace=wrap;html=1;fixedSize=1;" vertex="1" parent="WIyWlLk6GJQsqaUBKTNV-1">
          <mxGeometry x="430" y="240" width="120" height="60" as="geometry" />
        </mxCell>
        <mxCell id="VcVRGUTHm5neMzCTnZ2S-7" value="" style="endArrow=classic;html=1;rounded=0;entryX=0.586;entryY=-0.032;entryDx=0;entryDy=0;exitX=0.5;exitY=1;exitDx=0;exitDy=0;entryPerimeter=0;" edge="1" parent="WIyWlLk6GJQsqaUBKTNV-1" source="VcVRGUTHm5neMzCTnZ2S-3" target="VcVRGUTHm5neMzCTnZ2S-6">
          <mxGeometry width="50" height="50" relative="1" as="geometry">
            <mxPoint x="490" y="200" as="sourcePoint" />
            <mxPoint x="610" y="350" as="targetPoint" />
          </mxGeometry>
        </mxCell>
        <mxCell id="VcVRGUTHm5neMzCTnZ2S-8" value="" style="edgeStyle=orthogonalEdgeStyle;rounded=0;orthogonalLoop=1;jettySize=auto;html=1;entryX=0;entryY=0.5;entryDx=0;entryDy=0;" edge="1" parent="WIyWlLk6GJQsqaUBKTNV-1" source="VcVRGUTHm5neMzCTnZ2S-10" target="VcVRGUTHm5neMzCTnZ2S-28">
          <mxGeometry relative="1" as="geometry">
            <mxPoint x="590" y="385" as="targetPoint" />
          </mxGeometry>
        </mxCell>
        <mxCell id="VcVRGUTHm5neMzCTnZ2S-9" value="" style="edgeStyle=orthogonalEdgeStyle;rounded=0;orthogonalLoop=1;jettySize=auto;html=1;entryX=0.5;entryY=0;entryDx=0;entryDy=0;" edge="1" parent="WIyWlLk6GJQsqaUBKTNV-1" source="VcVRGUTHm5neMzCTnZ2S-10" target="VcVRGUTHm5neMzCTnZ2S-35">
          <mxGeometry relative="1" as="geometry">
            <mxPoint x="380" y="385" as="targetPoint" />
          </mxGeometry>
        </mxCell>
        <mxCell id="VcVRGUTHm5neMzCTnZ2S-10" value="Look up employee?" style="rhombus;whiteSpace=wrap;html=1;" vertex="1" parent="WIyWlLk6GJQsqaUBKTNV-1">
          <mxGeometry x="445" y="340" width="90" height="90" as="geometry" />
        </mxCell>
        <mxCell id="VcVRGUTHm5neMzCTnZ2S-11" value="True" style="text;html=1;align=center;verticalAlign=middle;resizable=0;points=[];autosize=1;strokeColor=none;fillColor=none;" vertex="1" parent="WIyWlLk6GJQsqaUBKTNV-1">
          <mxGeometry x="535" y="360" width="50" height="30" as="geometry" />
        </mxCell>
        <mxCell id="VcVRGUTHm5neMzCTnZ2S-12" value="False" style="text;html=1;align=center;verticalAlign=middle;resizable=0;points=[];autosize=1;strokeColor=none;fillColor=none;" vertex="1" parent="WIyWlLk6GJQsqaUBKTNV-1">
          <mxGeometry x="390" y="360" width="50" height="30" as="geometry" />
        </mxCell>
        <mxCell id="VcVRGUTHm5neMzCTnZ2S-13" value="" style="endArrow=classic;html=1;rounded=0;exitX=0.5;exitY=1;exitDx=0;exitDy=0;entryX=0.5;entryY=0;entryDx=0;entryDy=0;" edge="1" parent="WIyWlLk6GJQsqaUBKTNV-1" source="VcVRGUTHm5neMzCTnZ2S-6" target="VcVRGUTHm5neMzCTnZ2S-10">
          <mxGeometry width="50" height="50" relative="1" as="geometry">
            <mxPoint x="500" y="570" as="sourcePoint" />
            <mxPoint x="550" y="520" as="targetPoint" />
          </mxGeometry>
        </mxCell>
        <mxCell id="VcVRGUTHm5neMzCTnZ2S-26" value="Employee Management System&lt;div&gt;Flowchart&lt;div&gt;&lt;br&gt;&lt;/div&gt;&lt;div&gt;Briana Asselin&lt;/div&gt;&lt;div&gt;CITP 110&lt;/div&gt;&lt;/div&gt;&lt;div&gt;4/5/2024&lt;/div&gt;" style="rounded=0;whiteSpace=wrap;html=1;" vertex="1" parent="WIyWlLk6GJQsqaUBKTNV-1">
          <mxGeometry x="170" y="50" width="180" height="100" as="geometry" />
        </mxCell>
        <mxCell id="VcVRGUTHm5neMzCTnZ2S-28" value="Display&lt;div&gt;employee&lt;/div&gt;&lt;div&gt;info&lt;/div&gt;" style="shape=parallelogram;perimeter=parallelogramPerimeter;whiteSpace=wrap;html=1;fixedSize=1;" vertex="1" parent="WIyWlLk6GJQsqaUBKTNV-1">
          <mxGeometry x="590" y="355" width="120" height="60" as="geometry" />
        </mxCell>
        <mxCell id="VcVRGUTHm5neMzCTnZ2S-33" value="" style="edgeStyle=orthogonalEdgeStyle;rounded=0;orthogonalLoop=1;jettySize=auto;html=1;entryX=0;entryY=0.5;entryDx=0;entryDy=0;" edge="1" parent="WIyWlLk6GJQsqaUBKTNV-1" source="VcVRGUTHm5neMzCTnZ2S-35" target="VcVRGUTHm5neMzCTnZ2S-40">
          <mxGeometry relative="1" as="geometry">
            <mxPoint x="447.5" y="422.5" as="targetPoint" />
          </mxGeometry>
        </mxCell>
        <mxCell id="VcVRGUTHm5neMzCTnZ2S-34" value="" style="edgeStyle=orthogonalEdgeStyle;rounded=0;orthogonalLoop=1;jettySize=auto;html=1;entryX=0.5;entryY=0;entryDx=0;entryDy=0;" edge="1" parent="WIyWlLk6GJQsqaUBKTNV-1" source="VcVRGUTHm5neMzCTnZ2S-35" target="VcVRGUTHm5neMzCTnZ2S-46">
          <mxGeometry relative="1" as="geometry">
            <mxPoint x="280" y="570" as="targetPoint" />
          </mxGeometry>
        </mxCell>
        <mxCell id="VcVRGUTHm5neMzCTnZ2S-35" value="Add&amp;nbsp;&lt;span style=&quot;background-color: initial;&quot;&gt;new&lt;/span&gt;&lt;div&gt;employee?&lt;/div&gt;" style="rhombus;whiteSpace=wrap;html=1;" vertex="1" parent="WIyWlLk6GJQsqaUBKTNV-1">
          <mxGeometry x="332.5" y="430" width="90" height="90" as="geometry" />
        </mxCell>
        <mxCell id="VcVRGUTHm5neMzCTnZ2S-36" value="True" style="text;html=1;align=center;verticalAlign=middle;resizable=0;points=[];autosize=1;strokeColor=none;fillColor=none;" vertex="1" parent="WIyWlLk6GJQsqaUBKTNV-1">
          <mxGeometry x="422.5" y="447.5" width="50" height="30" as="geometry" />
        </mxCell>
        <mxCell id="VcVRGUTHm5neMzCTnZ2S-37" value="False" style="text;html=1;align=center;verticalAlign=middle;resizable=0;points=[];autosize=1;strokeColor=none;fillColor=none;" vertex="1" parent="WIyWlLk6GJQsqaUBKTNV-1">
          <mxGeometry x="280" y="445" width="50" height="30" as="geometry" />
        </mxCell>
        <mxCell id="VcVRGUTHm5neMzCTnZ2S-38" value="Display&lt;div&gt;confirmation&lt;/div&gt;&lt;div&gt;message&lt;/div&gt;" style="shape=parallelogram;perimeter=parallelogramPerimeter;whiteSpace=wrap;html=1;fixedSize=1;" vertex="1" parent="WIyWlLk6GJQsqaUBKTNV-1">
          <mxGeometry x="787.5" y="445" width="120" height="60" as="geometry" />
        </mxCell>
        <mxCell id="VcVRGUTHm5neMzCTnZ2S-39" value="Add to&lt;div&gt;dictionary&lt;/div&gt;" style="rounded=0;whiteSpace=wrap;html=1;" vertex="1" parent="WIyWlLk6GJQsqaUBKTNV-1">
          <mxGeometry x="647.5" y="447.5" width="85" height="55" as="geometry" />
        </mxCell>
        <mxCell id="VcVRGUTHm5neMzCTnZ2S-40" value="Get employee&lt;div&gt;info&lt;/div&gt;" style="shape=parallelogram;perimeter=parallelogramPerimeter;whiteSpace=wrap;html=1;fixedSize=1;" vertex="1" parent="WIyWlLk6GJQsqaUBKTNV-1">
          <mxGeometry x="477.5" y="445" width="120" height="60" as="geometry" />
        </mxCell>
        <mxCell id="VcVRGUTHm5neMzCTnZ2S-42" value="" style="endArrow=classic;html=1;rounded=0;exitX=1;exitY=0.5;exitDx=0;exitDy=0;entryX=0;entryY=0.5;entryDx=0;entryDy=0;" edge="1" parent="WIyWlLk6GJQsqaUBKTNV-1" source="VcVRGUTHm5neMzCTnZ2S-40" target="VcVRGUTHm5neMzCTnZ2S-39">
          <mxGeometry width="50" height="50" relative="1" as="geometry">
            <mxPoint x="387.5" y="492.5" as="sourcePoint" />
            <mxPoint x="617.5" y="552.5" as="targetPoint" />
          </mxGeometry>
        </mxCell>
        <mxCell id="VcVRGUTHm5neMzCTnZ2S-43" value="" style="endArrow=classic;html=1;rounded=0;exitX=1;exitY=0.5;exitDx=0;exitDy=0;entryX=0;entryY=0.5;entryDx=0;entryDy=0;" edge="1" parent="WIyWlLk6GJQsqaUBKTNV-1" source="VcVRGUTHm5neMzCTnZ2S-39" target="VcVRGUTHm5neMzCTnZ2S-38">
          <mxGeometry width="50" height="50" relative="1" as="geometry">
            <mxPoint x="597.5" y="485.5" as="sourcePoint" />
            <mxPoint x="657.5" y="485.5" as="targetPoint" />
          </mxGeometry>
        </mxCell>
        <mxCell id="VcVRGUTHm5neMzCTnZ2S-44" value="" style="edgeStyle=orthogonalEdgeStyle;rounded=0;orthogonalLoop=1;jettySize=auto;html=1;entryX=0;entryY=0.5;entryDx=0;entryDy=0;" edge="1" parent="WIyWlLk6GJQsqaUBKTNV-1" source="VcVRGUTHm5neMzCTnZ2S-46" target="VcVRGUTHm5neMzCTnZ2S-51">
          <mxGeometry relative="1" as="geometry">
            <mxPoint x="355" y="522.5" as="targetPoint" />
          </mxGeometry>
        </mxCell>
        <mxCell id="VcVRGUTHm5neMzCTnZ2S-45" value="" style="edgeStyle=orthogonalEdgeStyle;rounded=0;orthogonalLoop=1;jettySize=auto;html=1;entryX=0.5;entryY=0;entryDx=0;entryDy=0;exitX=1.094;exitY=1.082;exitDx=0;exitDy=0;exitPerimeter=0;" edge="1" parent="WIyWlLk6GJQsqaUBKTNV-1" source="VcVRGUTHm5neMzCTnZ2S-48" target="VcVRGUTHm5neMzCTnZ2S-56">
          <mxGeometry relative="1" as="geometry">
            <mxPoint x="188" y="670" as="targetPoint" />
            <Array as="points">
              <mxPoint x="245" y="575" />
              <mxPoint x="210" y="575" />
            </Array>
          </mxGeometry>
        </mxCell>
        <mxCell id="VcVRGUTHm5neMzCTnZ2S-46" value="Change&lt;div&gt;employee&lt;/div&gt;&lt;div&gt;info?&lt;/div&gt;" style="rhombus;whiteSpace=wrap;html=1;" vertex="1" parent="WIyWlLk6GJQsqaUBKTNV-1">
          <mxGeometry x="240" y="530" width="90" height="90" as="geometry" />
        </mxCell>
        <mxCell id="VcVRGUTHm5neMzCTnZ2S-47" value="True" style="text;html=1;align=center;verticalAlign=middle;resizable=0;points=[];autosize=1;strokeColor=none;fillColor=none;" vertex="1" parent="WIyWlLk6GJQsqaUBKTNV-1">
          <mxGeometry x="330" y="545" width="50" height="30" as="geometry" />
        </mxCell>
        <mxCell id="VcVRGUTHm5neMzCTnZ2S-48" value="False" style="text;html=1;align=center;verticalAlign=middle;resizable=0;points=[];autosize=1;strokeColor=none;fillColor=none;" vertex="1" parent="WIyWlLk6GJQsqaUBKTNV-1">
          <mxGeometry x="195" y="545" width="50" height="30" as="geometry" />
        </mxCell>
        <mxCell id="VcVRGUTHm5neMzCTnZ2S-49" value="Display&lt;div&gt;confirmation&lt;/div&gt;&lt;div&gt;message&lt;/div&gt;" style="shape=parallelogram;perimeter=parallelogramPerimeter;whiteSpace=wrap;html=1;fixedSize=1;" vertex="1" parent="WIyWlLk6GJQsqaUBKTNV-1">
          <mxGeometry x="695" y="545" width="120" height="60" as="geometry" />
        </mxCell>
        <mxCell id="VcVRGUTHm5neMzCTnZ2S-50" value="&lt;div&gt;Update&lt;/div&gt;&lt;div&gt;dictionary&lt;/div&gt;" style="rounded=0;whiteSpace=wrap;html=1;" vertex="1" parent="WIyWlLk6GJQsqaUBKTNV-1">
          <mxGeometry x="555" y="547.5" width="85" height="55" as="geometry" />
        </mxCell>
        <mxCell id="VcVRGUTHm5neMzCTnZ2S-51" value="Get new&lt;div&gt;info&lt;/div&gt;" style="shape=parallelogram;perimeter=parallelogramPerimeter;whiteSpace=wrap;html=1;fixedSize=1;" vertex="1" parent="WIyWlLk6GJQsqaUBKTNV-1">
          <mxGeometry x="385" y="545" width="120" height="60" as="geometry" />
        </mxCell>
        <mxCell id="VcVRGUTHm5neMzCTnZ2S-52" value="" style="endArrow=classic;html=1;rounded=0;exitX=1;exitY=0.5;exitDx=0;exitDy=0;entryX=0;entryY=0.5;entryDx=0;entryDy=0;" edge="1" parent="WIyWlLk6GJQsqaUBKTNV-1" source="VcVRGUTHm5neMzCTnZ2S-51" target="VcVRGUTHm5neMzCTnZ2S-50">
          <mxGeometry width="50" height="50" relative="1" as="geometry">
            <mxPoint x="295" y="592.5" as="sourcePoint" />
            <mxPoint x="525" y="652.5" as="targetPoint" />
          </mxGeometry>
        </mxCell>
        <mxCell id="VcVRGUTHm5neMzCTnZ2S-53" value="" style="endArrow=classic;html=1;rounded=0;exitX=1;exitY=0.5;exitDx=0;exitDy=0;entryX=0;entryY=0.5;entryDx=0;entryDy=0;" edge="1" parent="WIyWlLk6GJQsqaUBKTNV-1" source="VcVRGUTHm5neMzCTnZ2S-50" target="VcVRGUTHm5neMzCTnZ2S-49">
          <mxGeometry width="50" height="50" relative="1" as="geometry">
            <mxPoint x="505" y="585.5" as="sourcePoint" />
            <mxPoint x="565" y="585.5" as="targetPoint" />
          </mxGeometry>
        </mxCell>
        <mxCell id="VcVRGUTHm5neMzCTnZ2S-54" value="" style="edgeStyle=orthogonalEdgeStyle;rounded=0;orthogonalLoop=1;jettySize=auto;html=1;entryX=0;entryY=0.5;entryDx=0;entryDy=0;" edge="1" parent="WIyWlLk6GJQsqaUBKTNV-1" source="VcVRGUTHm5neMzCTnZ2S-56" target="VcVRGUTHm5neMzCTnZ2S-61">
          <mxGeometry relative="1" as="geometry">
            <mxPoint x="325" y="675" as="targetPoint" />
          </mxGeometry>
        </mxCell>
        <mxCell id="VcVRGUTHm5neMzCTnZ2S-56" value="Delete&lt;div&gt;employee?&lt;/div&gt;" style="rhombus;whiteSpace=wrap;html=1;" vertex="1" parent="WIyWlLk6GJQsqaUBKTNV-1">
          <mxGeometry x="165" y="630" width="90" height="90" as="geometry" />
        </mxCell>
        <mxCell id="VcVRGUTHm5neMzCTnZ2S-57" value="True" style="text;html=1;align=center;verticalAlign=middle;resizable=0;points=[];autosize=1;strokeColor=none;fillColor=none;" vertex="1" parent="WIyWlLk6GJQsqaUBKTNV-1">
          <mxGeometry x="245" y="645" width="50" height="30" as="geometry" />
        </mxCell>
        <mxCell id="VcVRGUTHm5neMzCTnZ2S-58" value="False" style="text;html=1;align=center;verticalAlign=middle;resizable=0;points=[];autosize=1;strokeColor=none;fillColor=none;" vertex="1" parent="WIyWlLk6GJQsqaUBKTNV-1">
          <mxGeometry x="120" y="645" width="50" height="30" as="geometry" />
        </mxCell>
        <mxCell id="VcVRGUTHm5neMzCTnZ2S-59" value="Display&lt;div&gt;confirmation&lt;/div&gt;&lt;div&gt;message&lt;/div&gt;" style="shape=parallelogram;perimeter=parallelogramPerimeter;whiteSpace=wrap;html=1;fixedSize=1;" vertex="1" parent="WIyWlLk6GJQsqaUBKTNV-1">
          <mxGeometry x="680" y="645" width="120" height="60" as="geometry" />
        </mxCell>
        <mxCell id="VcVRGUTHm5neMzCTnZ2S-60" value="Delete from&lt;div&gt;dictionary&lt;/div&gt;" style="rounded=0;whiteSpace=wrap;html=1;" vertex="1" parent="WIyWlLk6GJQsqaUBKTNV-1">
          <mxGeometry x="555" y="647.5" width="85" height="55" as="geometry" />
        </mxCell>
        <mxCell id="VcVRGUTHm5neMzCTnZ2S-61" value="Get employee&lt;div&gt;record&lt;/div&gt;" style="shape=parallelogram;perimeter=parallelogramPerimeter;whiteSpace=wrap;html=1;fixedSize=1;" vertex="1" parent="WIyWlLk6GJQsqaUBKTNV-1">
          <mxGeometry x="360" y="645" width="120" height="60" as="geometry" />
        </mxCell>
        <mxCell id="VcVRGUTHm5neMzCTnZ2S-62" value="" style="endArrow=classic;html=1;rounded=0;exitX=1;exitY=0.5;exitDx=0;exitDy=0;entryX=0;entryY=0.5;entryDx=0;entryDy=0;" edge="1" parent="WIyWlLk6GJQsqaUBKTNV-1" source="VcVRGUTHm5neMzCTnZ2S-61" target="VcVRGUTHm5neMzCTnZ2S-60">
          <mxGeometry width="50" height="50" relative="1" as="geometry">
            <mxPoint x="425" y="675" as="sourcePoint" />
            <mxPoint x="455" y="752.5" as="targetPoint" />
          </mxGeometry>
        </mxCell>
        <mxCell id="VcVRGUTHm5neMzCTnZ2S-63" value="" style="endArrow=classic;html=1;rounded=0;exitX=1;exitY=0.5;exitDx=0;exitDy=0;entryX=0;entryY=0.5;entryDx=0;entryDy=0;" edge="1" parent="WIyWlLk6GJQsqaUBKTNV-1" source="VcVRGUTHm5neMzCTnZ2S-60" target="VcVRGUTHm5neMzCTnZ2S-59">
          <mxGeometry width="50" height="50" relative="1" as="geometry">
            <mxPoint x="435" y="685.5" as="sourcePoint" />
            <mxPoint x="635" y="675" as="targetPoint" />
          </mxGeometry>
        </mxCell>
        <mxCell id="VcVRGUTHm5neMzCTnZ2S-64" value="" style="edgeStyle=orthogonalEdgeStyle;rounded=0;orthogonalLoop=1;jettySize=auto;html=1;entryX=1;entryY=0.5;entryDx=0;entryDy=0;exitX=1;exitY=0.5;exitDx=0;exitDy=0;" edge="1" parent="WIyWlLk6GJQsqaUBKTNV-1" source="VcVRGUTHm5neMzCTnZ2S-66" target="VcVRGUTHm5neMzCTnZ2S-3">
          <mxGeometry relative="1" as="geometry">
            <mxPoint x="950" y="280" as="targetPoint" />
            <Array as="points">
              <mxPoint x="930" y="775" />
              <mxPoint x="930" y="170" />
            </Array>
          </mxGeometry>
        </mxCell>
        <mxCell id="VcVRGUTHm5neMzCTnZ2S-66" value="Continue&lt;div&gt;using&lt;/div&gt;&lt;div&gt;EMS?&lt;/div&gt;" style="rhombus;whiteSpace=wrap;html=1;" vertex="1" parent="WIyWlLk6GJQsqaUBKTNV-1">
          <mxGeometry x="80" y="730" width="90" height="90" as="geometry" />
        </mxCell>
        <mxCell id="VcVRGUTHm5neMzCTnZ2S-67" value="True" style="text;html=1;align=center;verticalAlign=middle;resizable=0;points=[];autosize=1;strokeColor=none;fillColor=none;" vertex="1" parent="WIyWlLk6GJQsqaUBKTNV-1">
          <mxGeometry x="170" y="745" width="50" height="30" as="geometry" />
        </mxCell>
        <mxCell id="VcVRGUTHm5neMzCTnZ2S-68" value="False" style="text;html=1;align=center;verticalAlign=middle;resizable=0;points=[];autosize=1;strokeColor=none;fillColor=none;" vertex="1" parent="WIyWlLk6GJQsqaUBKTNV-1">
          <mxGeometry x="45" y="745" width="50" height="30" as="geometry" />
        </mxCell>
        <mxCell id="VcVRGUTHm5neMzCTnZ2S-69" value="" style="edgeStyle=orthogonalEdgeStyle;rounded=0;orthogonalLoop=1;jettySize=auto;html=1;entryX=0.5;entryY=0;entryDx=0;entryDy=0;exitX=0;exitY=0.5;exitDx=0;exitDy=0;" edge="1" parent="WIyWlLk6GJQsqaUBKTNV-1" source="VcVRGUTHm5neMzCTnZ2S-56" target="VcVRGUTHm5neMzCTnZ2S-66">
          <mxGeometry relative="1" as="geometry">
            <mxPoint x="200" y="640" as="targetPoint" />
            <mxPoint x="250" y="585" as="sourcePoint" />
            <Array as="points">
              <mxPoint x="125" y="675" />
            </Array>
          </mxGeometry>
        </mxCell>
        <mxCell id="VcVRGUTHm5neMzCTnZ2S-71" value="" style="edgeStyle=orthogonalEdgeStyle;rounded=0;orthogonalLoop=1;jettySize=auto;html=1;entryX=0.5;entryY=0;entryDx=0;entryDy=0;exitX=0;exitY=0.5;exitDx=0;exitDy=0;" edge="1" parent="WIyWlLk6GJQsqaUBKTNV-1" source="VcVRGUTHm5neMzCTnZ2S-66" target="VcVRGUTHm5neMzCTnZ2S-2">
          <mxGeometry relative="1" as="geometry">
            <mxPoint x="135" y="740" as="targetPoint" />
            <mxPoint x="175" y="685" as="sourcePoint" />
            <Array as="points">
              <mxPoint x="65" y="775" />
            </Array>
          </mxGeometry>
        </mxCell>
      </root>
    </mxGraphModel>
  </diagram>
</mxfile>
